<?xml version="1.0" encoding="UTF-8" standalone="no"?>
<svg
   xmlns:dc="http://purl.org/dc/elements/1.1/"
   xmlns:cc="http://creativecommons.org/ns#"
   xmlns:rdf="http://www.w3.org/1999/02/22-rdf-syntax-ns#"
   xmlns:svg="http://www.w3.org/2000/svg"
   xmlns="http://www.w3.org/2000/svg"
   xmlns:sodipodi="http://sodipodi.sourceforge.net/DTD/sodipodi-0.dtd"
   xmlns:inkscape="http://www.inkscape.org/namespaces/inkscape"
   width="216.238"
   height="263.284"
   viewBox="0 0 57.212849 69.660614"
   version="1.1"
   id="svg16"
   sodipodi:docname="memoria.svg"
   inkscape:version="0.92.3 (2405546, 2018-03-11)">
  <metadata
     id="metadata22">
    <rdf:RDF>
      <cc:Work
         rdf:about="">
        <dc:format>image/svg+xml</dc:format>
        <dc:type
           rdf:resource="http://purl.org/dc/dcmitype/StillImage" />
      </cc:Work>
    </rdf:RDF>
  </metadata>
  <defs
     id="defs20" />
  <sodipodi:namedview
     pagecolor="#ffffff"
     bordercolor="#666666"
     borderopacity="1"
     objecttolerance="10"
     gridtolerance="10"
     guidetolerance="10"
     inkscape:pageopacity="0"
     inkscape:pageshadow="2"
     inkscape:window-width="1920"
     inkscape:window-height="1017"
     id="namedview18"
     showgrid="false"
     inkscape:zoom="0.89637047"
     inkscape:cx="108.119"
     inkscape:cy="131.642"
     inkscape:window-x="-8"
     inkscape:window-y="-8"
     inkscape:window-maximized="1"
     inkscape:current-layer="svg16" />
  <path
     fill="#fc0"
     d="M15.908 2.487h39.374v10.857H15.908z"
     id="path2" />
  <path
     d="M5.253 69.558c-.593-.189-.902-.383-1.306-.821-.695-.755-.698-.77-.752-3.905l-.048-2.793-1.161-.046c-1.296-.05-1.507-.136-1.83-.735-.163-.304-.17-.666-.146-8.483.024-8.14.024-8.167.217-8.425.376-.505.71-.621 1.89-.657l1.076-.033V11.584l5.793-5.792L14.778 0l20.19.024 20.19.023.495.274a3.177 3.177 0 0 1 1.334 1.49c.182.426.186.614.207 9.957.012 5.238-.002 9.595-.029 9.684-.045.143-.198.16-1.464.16h-1.413v13.003h2.925l-.02 16.413-.02 16.414-.243.517a3.11 3.11 0 0 1-1.41 1.455l-.453.225-24.724.018c-19.768.013-24.797-.006-25.09-.1zM23.063 7.83V2.84h-5.677v9.98h5.677zm7.784 0V2.84h-5.678v9.98h5.678zm7.874 0V2.84h-5.677v9.98h5.677zm7.784 0V2.84h-5.677v9.98h5.677zM54.3 9.09l.017-4.968.003-1.236-2.855-.024-2.856-.024v9.983h5.678z"
     fill="#00f"
     id="path4" />
  <g
     font-weight="400"
     font-family="ubuntu"
     letter-spacing="0"
     word-spacing="0"
     text-anchor="middle"
     id="g14">
    <text
       style="line-height:1.25;-inkscape-font-specification:ubuntu;text-align:center"
       x="108.954"
       y="182.548"
       font-size="10.125"
       fill="#fff"
       stroke-width=".265"
       transform="translate(-78.502 -120.48)"
       id="text8">
      <tspan
         x="108.954"
         y="182.548"
         style="-inkscape-font-specification:'ubuntu Medium'"
         font-weight="500"
         id="tspan6">Memory</tspan>
    </text>
    <text
       style="font-size:11.8039999px;line-height:1.25;-inkscape-font-specification:ubuntu;text-align:center;fill:#ff0000;stroke-width:0.308"
       x="108.426"
       y="159.433"
       font-size="11.804"
       transform="translate(-78.502,-120.48)"
       id="text12">
      <tspan
         x="108.426"
         y="159.433"
         style="font-weight:500;-inkscape-font-specification:'ubuntu Medium'"
         font-weight="500"
         id="tspan10">2 KBytes</tspan>
    </text>
  </g>
  <text
     xml:space="preserve"
     style="font-style:normal;font-weight:normal;font-size:10.5833416px;line-height:1.25;font-family:sans-serif;letter-spacing:0px;word-spacing:0px;fill:#000000;fill-opacity:1;stroke:none;stroke-width:0.26458356"
     x="2.9516356"
     y="52.245461"
     id="text4534"><tspan
       sodipodi:role="line"
       id="tspan4532"
       x="2.9516356"
       y="52.245461"
       style="stroke-width:0.26458356">1024 x 16</tspan></text>
</svg>
